# xmcd
#
# Track frame offsets: 
#        150
#        15047
#        29516
#        43524
#        62319
#        83678
#        87965
#        102221
#        123304
#        137154
#        153836
#        168531
#        185192
#        207657
#        222946
#        225186
#        242748
#
# Disc length: 3469 seconds
#
# Revision: 2
# Processed by: cddbd v1.5.2PL0 Copyright (c) Steve Scherf et al.
# Submitted via: ExactAudioCopy v0.95b4
#
DISCID=d60d8b11
DTITLE=Bonfire - Point Blank
DYEAR=1989
DGENRE=Metal
TTITLE0=Bang Down The Door
TTITLE1=Waste No Time
TTITLE2=Hard On Me
TTITLE3=Why Is It Never Enough
TTITLE4=Tony's Roulette
TTITLE5=Minestrone
TTITLE6=You're Back
TTITLE7=Look Of Love
TTITLE8=The Price Of Loving You
TTITLE9=Freedom Is My Belief
TTITLE10=Gimme Some
TTITLE11=Say Goodbye
TTITLE12=Never Surrender
TTITLE13=(20th Century) Youth Patrol
TTITLE14=Jungle Call
TTITLE15=Know Right Now
TTITLE16=Who's Foolin' Who
EXTD=YEAR: 1989
EXTT0=
EXTT1=
EXTT2=
EXTT3=
EXTT4=
EXTT5=
EXTT6=
EXTT7=
EXTT8=
EXTT9=
EXTT10=
EXTT11=
EXTT12=
EXTT13=
EXTT14=
EXTT15=
EXTT16=
PLAYORDER=
